<svg xmlns="http://www.w3.org/2000/svg" xmlns:xlink="http://www.w3.org/1999/xlink" width="196" height="167" viewBox="0 0 196 167">
  <defs>
    <clipPath id="clip-path">
      <rect id="長方形_3649" data-name="長方形 3649" width="196" height="167" fill="none"/>
    </clipPath>
  </defs>
  <g id="point01-premiumdx" style="isolation: isolate">
    <g id="レイヤー_2" data-name="レイヤー 2">
      <g id="w196h167">
        <g id="グループ_21239" data-name="グループ 21239" clip-path="url(#clip-path)">
          <g id="グループ_21238" data-name="グループ 21238">
            <g id="グループ_21233" data-name="グループ 21233">
              <g id="グループ_21232" data-name="グループ 21232">
                <g id="グループ_21225" data-name="グループ 21225" opacity="0.5">
                  <g id="グループ_21224" data-name="グループ 21224">
                    <path id="パス_23697" data-name="パス 23697" d="M101.08,68.29c2.13-8.53-.53-23.85-1.84-27.09-.73-1.81-5.39-14.37-6.21-16.15-2.2-4.81-2.35-12.34-.08-17.12a51.529,51.529,0,0,1,2.49-4.92c3.96-6.46,9.62-10.68,14.34-16.6l2.61-3.47c2.83-3.33,4.24-7.82,7.59-10.62,3.48-2.9,4.86-3.38,9.37-3.73a12.816,12.816,0,0,1,3.66.06,10.529,10.529,0,0,1,4.08,2.07c3.65,2.71,5.42,6.26,7.49,10.3l1.83,4.84a59.25,59.25,0,0,1,1.9,36.12c-6.36,20.36-7.03,31.58-5.95,38.07l1.5,6.99c1.46,9.59,4.8,18.45,4.92,28.14-17.59.89-35.33.29-52.93-.41-.01-1.06-.02-.91-.02-2.42l5.22-24.06Z" fill="#b5b5b6"/>
                  </g>
                  <path id="パス_23698" data-name="パス 23698" d="M40.52,258.58c1.8,4.81,3.69,10.26-.16,13.66-2.97,2.63-7.31,3.02-11.27,2.7-7.07-.58-14.18-2.99-21.11-1.48-1.81.39-3.55,1.05-5.33,1.53a28.917,28.917,0,0,1-13.37.38c-1.8-.38-3.82-1.17-4.34-2.93a3.876,3.876,0,0,1,1.34-3.81,12.353,12.353,0,0,1,3.73-2.02c5.55-2.26,17.43-4.7,26.97-12.98,1.44-.81,3.98-4.33,3.99-5.98.03-10.8-.36-20.91-1.16-31.68-.3-4.03-.66-8.06-1.03-12.08-.51-5.5-1.06-11-1.61-16.5-.29-2.9-.47-37.18-3.26-52.97a19.548,19.548,0,0,1,.77-7.09,20.7,20.7,0,0,1,2.55-5.45c3.43-5.17,7.99-8.19,13.92-10.04s31.19-4.01,43.22-4.91c-.16,12.33-.63,17.57.71,29.83-3.88.88-19.02,1.53-29.63,2.49l-1.73.11c-.99,0-3.3.4-4.06.49.99,6.21,2.83,13.17,3.82,19.38,3.41,20.62-1.3,26.01-5.21,45.98-1.35,6.91-2.25,13.42-1.74,20.44.42,5.72,1.65,23.81,2.89,29.42l1.1,3.52Z" fill="#fbfbfc"/>
                  <path id="パス_23699" data-name="パス 23699" d="M132.28,95.88c-2.84.1-14.53-.25-17.47-.26-6.17-.02-11.77-.43-18.34-.4-.08,1.07-.37,8.72-.58,9.78-2.28.11-19.27,1.92-21.53,1.92.02,9.39.37,28.57.71,29.83.08.31,16.96-.03,17.73-.11,13.1-.68,20.29-1.07,36.14-2.23,2.9-.69,6.75-1.52,9.26-3.13,11.36-10.72,10.13-30.52,10.12-31.76,0-.73-.34-3.3-.8-3.86-.81-.98-5.27-.14-6.58-.09-2.88.1-5.77.21-8.65.31Z" fill="#4a5f5c"/>
                </g>
                <g id="グループ_21228" data-name="グループ 21228" opacity="0.7">
                  <path id="パス_23700" data-name="パス 23700" d="M45.94,109.27c-3.92.55-5.67-3.44.92-5.23,8.74-2.37,20.43-5.7,27.87-8.77a25.736,25.736,0,0,0,5.4-3.95c9.36-8.36,17.19-20.03,27.19-27.62,2.19-1.66,4.04-3.66,6.63-5.85l1.36-3.01c1.23-18.86,2.37-41.94,2.84-60.11.13-5.15.45-10.62,3.42-14.83a13.678,13.678,0,0,1,9.25-5.6,8.114,8.114,0,0,1,4.7.6,8.778,8.778,0,0,1,3.95,5.24l2.16,10.41c.3,7.02-5.23,31.78-5.62,34.23-1.54,9.8-2.62,19.68-3.23,29.58l-1.63,4.9a85.956,85.956,0,0,1-6.29,8.53C114.46,80.2,100.7,89.24,87.14,98.1c-2.14,1.4-6.46,4.47-8.81,5.47a68.636,68.636,0,0,1-8.96,3.38l-23.44,2.32Z" fill="#fbfbfc"/>
                  <path id="パス_23701" data-name="パス 23701" d="M100.37,106.62s7.55,1.94,10.99,5.05" fill="none" stroke="#678e8c" stroke-linecap="round" stroke-linejoin="round" stroke-width="1"/>
                  <path id="パス_23702" data-name="パス 23702" d="M97.53,109.42a11.458,11.458,0,0,0,3.71,7.06" fill="none" stroke="#678e8c" stroke-linecap="round" stroke-linejoin="round" stroke-width="1"/>
                  <path id="パス_23703" data-name="パス 23703" d="M104.97,4.76a43,43,0,0,0,9.63-9.58" fill="none" stroke="#678e8c" stroke-linecap="round" stroke-linejoin="round" stroke-width="1"/>
                  <path id="パス_23704" data-name="パス 23704" d="M106.11,56.19a13.51,13.51,0,0,0,5.68-5.42" fill="none" stroke="#678e8c" stroke-linecap="round" stroke-linejoin="round" stroke-width="1"/>
                  <path id="パス_23705" data-name="パス 23705" d="M127.26,71.47s3.46,14.27,15.64,17.41" fill="none" stroke="#678e8c" stroke-linecap="round" stroke-linejoin="round" stroke-width="1"/>
                  <path id="パス_23706" data-name="パス 23706" d="M115.31,54.84c1.23-18.86,2.37-41.94,2.84-60.11.13-5.15.45-10.62,3.42-14.83a13.678,13.678,0,0,1,9.25-5.6,8.114,8.114,0,0,1,4.7.6,8.778,8.778,0,0,1,3.95,5.24" fill="none" stroke="#678e8c" stroke-linecap="round" stroke-linejoin="round" stroke-width="1"/>
                  <path id="パス_23707" data-name="パス 23707" d="M45.27,109.65c-3.61-.71-3.85-4.67.17-5.45a181.009,181.009,0,0,0,29.29-8.92,25.736,25.736,0,0,0,5.4-3.95c9.36-8.36,17.19-20.03,27.19-27.62,2.19-1.66,4.04-3.66,6.63-5.85" fill="none" stroke="#678e8c" stroke-linecap="round" stroke-linejoin="round" stroke-width="1"/>
                  <path id="パス_23708" data-name="パス 23708" d="M141.63-9.45c.3,7.02-5.23,31.78-5.62,34.23-1.54,9.8-2.62,19.68-3.23,29.58" fill="none" stroke="#678e8c" stroke-linecap="round" stroke-linejoin="round" stroke-width="1"/>
                  <g id="グループ_21226" data-name="グループ 21226">
                    <path id="パス_23709" data-name="パス 23709" d="M109.78-13.6C105.05-7.67,99.4-3.46,95.44,3a50.4,50.4,0,0,0-2.49,4.92c-2.26,4.79-2.12,12.31.08,17.12.81,1.78,5.48,14.33,6.21,16.15,1.31,3.25,3.98,18.57,1.84,27.09" fill="none" stroke="#678e8c" stroke-linecap="round" stroke-linejoin="round" stroke-width="1"/>
                    <path id="パス_23710" data-name="パス 23710" d="M143.88,67.03c1.46,9.59,4.8,18.45,4.92,28.14-17.59.89-35.33.29-52.93-.41-.01-1.06-.02-.91-.02-2.42" fill="none" stroke="#678e8c" stroke-linecap="round" stroke-linejoin="round" stroke-width="1"/>
                    <path id="パス_23711" data-name="パス 23711" d="M146.42-14.16a59.25,59.25,0,0,1,1.9,36.12c-6.36,20.36-7.03,31.58-5.95,38.07" fill="none" stroke="#678e8c" stroke-linecap="round" stroke-linejoin="round" stroke-width="1"/>
                  </g>
                  <path id="パス_23712" data-name="パス 23712" d="M131.15,59.26a85.956,85.956,0,0,1-6.29,8.53C114.46,80.2,100.7,89.24,87.14,98.1c-2.14,1.4-7.15,4.79-9.49,5.79a115.056,115.056,0,0,1-11.8,3.81" fill="none" stroke="#678e8c" stroke-linecap="round" stroke-linejoin="round" stroke-width="1"/>
                  <path id="パス_23713" data-name="パス 23713" d="M65.3,103.56c-3.87,1.54-11.26,1.21-10.13,4.75" fill="none" stroke="#678e8c" stroke-linecap="round" stroke-linejoin="round" stroke-width="1"/>
                  <g id="グループ_21227" data-name="グループ 21227">
                    <path id="パス_23714" data-name="パス 23714" d="M96.13,94.47c-.14,1.22-.37,9.68-.42,10.91-2.52-.12-18.87,1.13-21.36,1.54-.16,12.33-.63,17.57.71,29.83" fill="none" stroke="#678e8c" stroke-linecap="round" stroke-linejoin="round" stroke-width="1"/>
                    <path id="パス_23715" data-name="パス 23715" d="M86.7,105.99c-12.03.9-49.63,4-55.56,5.85s-10.49,4.86-13.92,10.04a20.7,20.7,0,0,0-2.55,5.45,19.548,19.548,0,0,0-.77,7.09" fill="none" stroke="#678e8c" stroke-linecap="round" stroke-linejoin="round" stroke-width="1"/>
                    <path id="パス_23716" data-name="パス 23716" d="M148.33,96.74a49.763,49.763,0,0,1-3.47,25.75,22.19,22.19,0,0,1-3.63,6.18,19.277,19.277,0,0,1-10.31,5.64c-3.88.88-74.87,3.96-85.48,4.93-1.5.16-4.28.43-5.78.6.99,6.21,2.83,13.17,3.82,19.38,3.41,20.62-4.77,37.02-6.01,51.91-.58,7.02-1.45,12.42-.94,19.44.42,5.72,1.65,18.88,2.89,24.49" fill="none" stroke="#678e8c" stroke-linecap="round" stroke-linejoin="round" stroke-width="1"/>
                    <path id="パス_23717" data-name="パス 23717" d="M13.9,134.41c2.79,15.79,2.97,50.07,3.26,52.97.55,5.5,1.1,11,1.61,16.5q.57,6.03,1.03,12.08c.8,10.77,1.19,20.88,1.16,31.68,0,1.65-2.55,5.17-3.99,5.98C7.43,261.9-4.45,264.34-10,266.6a12.474,12.474,0,0,0-3.73,2.02,3.876,3.876,0,0,0-1.34,3.81c.53,1.76,2.54,2.55,4.34,2.93a28.909,28.909,0,0,0,13.37-.38c1.79-.48,3.53-1.14,5.33-1.53,6.93-1.51,14.04.91,21.11,1.48,3.96.32,8.29-.06,11.27-2.7,3.85-3.41,1.95-8.85.16-13.66" fill="none" stroke="#678e8c" stroke-linecap="round" stroke-linejoin="round" stroke-width="1"/>
                    <path id="パス_23718" data-name="パス 23718" d="M32.55,132.21a7.977,7.977,0,0,1,4.73,5.87" fill="none" stroke="#678e8c" stroke-linecap="round" stroke-linejoin="round" stroke-width="1"/>
                  </g>
                </g>
                <g id="グループ_21231" data-name="グループ 21231" opacity="0.2">
                  <path id="パス_23719" data-name="パス 23719" d="M45.94,109.27c-3.92.55-5.67-3.44.92-5.23,8.74-2.37,20.43-5.7,27.87-8.77a25.736,25.736,0,0,0,5.4-3.95c9.36-8.36,17.19-20.03,27.19-27.62,2.19-1.66,4.04-3.66,6.63-5.85l1.36-3.01c1.23-18.86,2.37-41.94,2.84-60.11.13-5.15.45-10.62,3.42-14.83a13.678,13.678,0,0,1,9.25-5.6,8.114,8.114,0,0,1,4.7.6,8.778,8.778,0,0,1,3.95,5.24l2.16,10.41c.3,7.02-5.23,31.78-5.62,34.23-1.54,9.8-2.62,19.68-3.23,29.58l-1.63,4.9a85.956,85.956,0,0,1-6.29,8.53C114.46,80.2,100.7,89.24,87.14,98.1c-2.14,1.4-6.46,4.47-8.81,5.47a68.636,68.636,0,0,1-8.96,3.38l-23.44,2.32Z" fill="#fbfbfc"/>
                  <path id="パス_23720" data-name="パス 23720" d="M100.37,106.62s7.55,1.94,10.99,5.05" fill="none" stroke="#678e8c" stroke-linecap="round" stroke-linejoin="round" stroke-width="1"/>
                  <path id="パス_23721" data-name="パス 23721" d="M97.53,109.42a11.458,11.458,0,0,0,3.71,7.06" fill="none" stroke="#678e8c" stroke-linecap="round" stroke-linejoin="round" stroke-width="1"/>
                  <path id="パス_23722" data-name="パス 23722" d="M104.97,4.76a43,43,0,0,0,9.63-9.58" fill="none" stroke="#678e8c" stroke-linecap="round" stroke-linejoin="round" stroke-width="1"/>
                  <path id="パス_23723" data-name="パス 23723" d="M106.11,56.19a13.51,13.51,0,0,0,5.68-5.42" fill="none" stroke="#678e8c" stroke-linecap="round" stroke-linejoin="round" stroke-width="1"/>
                  <path id="パス_23724" data-name="パス 23724" d="M127.26,71.47s3.46,14.27,15.64,17.41" fill="none" stroke="#678e8c" stroke-linecap="round" stroke-linejoin="round" stroke-width="1"/>
                  <path id="パス_23725" data-name="パス 23725" d="M115.31,54.84c1.23-18.86,2.37-41.94,2.84-60.11.13-5.15.45-10.62,3.42-14.83a13.678,13.678,0,0,1,9.25-5.6,8.114,8.114,0,0,1,4.7.6,8.778,8.778,0,0,1,3.95,5.24" fill="none" stroke="#678e8c" stroke-linecap="round" stroke-linejoin="round" stroke-width="1"/>
                  <path id="パス_23726" data-name="パス 23726" d="M45.27,109.65c-3.61-.71-3.85-4.67.17-5.45a181.009,181.009,0,0,0,29.29-8.92,25.736,25.736,0,0,0,5.4-3.95c9.36-8.36,17.19-20.03,27.19-27.62,2.19-1.66,4.04-3.66,6.63-5.85" fill="none" stroke="#678e8c" stroke-linecap="round" stroke-linejoin="round" stroke-width="1"/>
                  <path id="パス_23727" data-name="パス 23727" d="M141.63-9.45c.3,7.02-5.23,31.78-5.62,34.23-1.54,9.8-2.62,19.68-3.23,29.58" fill="none" stroke="#678e8c" stroke-linecap="round" stroke-linejoin="round" stroke-width="1"/>
                  <g id="グループ_21229" data-name="グループ 21229">
                    <path id="パス_23728" data-name="パス 23728" d="M109.78-13.6C105.05-7.67,99.4-3.46,95.44,3a50.4,50.4,0,0,0-2.49,4.92c-2.26,4.79-2.12,12.31.08,17.12.81,1.78,5.48,14.33,6.21,16.15,1.31,3.25,3.98,18.57,1.84,27.09" fill="none" stroke="#678e8c" stroke-linecap="round" stroke-linejoin="round" stroke-width="1"/>
                    <path id="パス_23729" data-name="パス 23729" d="M143.88,67.03c1.46,9.59,4.8,18.45,4.92,28.14-17.59.89-35.33.29-52.93-.41-.01-1.06-.02-.91-.02-2.42" fill="none" stroke="#678e8c" stroke-linecap="round" stroke-linejoin="round" stroke-width="1"/>
                    <path id="パス_23730" data-name="パス 23730" d="M146.42-14.16a59.25,59.25,0,0,1,1.9,36.12c-6.36,20.36-7.03,31.58-5.95,38.07" fill="none" stroke="#678e8c" stroke-linecap="round" stroke-linejoin="round" stroke-width="1"/>
                  </g>
                  <path id="パス_23731" data-name="パス 23731" d="M131.15,59.26a85.956,85.956,0,0,1-6.29,8.53C114.46,80.2,100.7,89.24,87.14,98.1c-2.14,1.4-7.15,4.79-9.49,5.79a115.056,115.056,0,0,1-11.8,3.81" fill="none" stroke="#678e8c" stroke-linecap="round" stroke-linejoin="round" stroke-width="1"/>
                  <path id="パス_23732" data-name="パス 23732" d="M65.3,103.56c-3.87,1.54-11.26,1.21-10.13,4.75" fill="none" stroke="#678e8c" stroke-linecap="round" stroke-linejoin="round" stroke-width="1"/>
                  <g id="グループ_21230" data-name="グループ 21230">
                    <path id="パス_23733" data-name="パス 23733" d="M96.13,94.47c-.14,1.22-.37,9.68-.42,10.91-2.52-.12-18.87,1.13-21.36,1.54-.16,12.33-.63,17.57.71,29.83" fill="none" stroke="#678e8c" stroke-linecap="round" stroke-linejoin="round" stroke-width="1"/>
                    <path id="パス_23734" data-name="パス 23734" d="M86.7,105.99c-12.03.9-49.63,4-55.56,5.85s-10.49,4.86-13.92,10.04a20.7,20.7,0,0,0-2.55,5.45,19.548,19.548,0,0,0-.77,7.09" fill="none" stroke="#678e8c" stroke-linecap="round" stroke-linejoin="round" stroke-width="1"/>
                    <path id="パス_23735" data-name="パス 23735" d="M148.33,96.74a49.763,49.763,0,0,1-3.47,25.75,22.19,22.19,0,0,1-3.63,6.18,19.277,19.277,0,0,1-10.31,5.64c-3.88.88-74.87,3.96-85.48,4.93-1.5.16-4.28.43-5.78.6.99,6.21,2.83,13.17,3.82,19.38,3.41,20.62-4.77,37.02-6.01,51.91-.58,7.02-1.45,12.42-.94,19.44.42,5.72,1.65,18.88,2.89,24.49" fill="none" stroke="#678e8c" stroke-linecap="round" stroke-linejoin="round" stroke-width="1"/>
                    <path id="パス_23736" data-name="パス 23736" d="M13.9,134.41c2.79,15.79,2.97,50.07,3.26,52.97.55,5.5,1.1,11,1.61,16.5q.57,6.03,1.03,12.08c.8,10.77,1.19,20.88,1.16,31.68,0,1.65-2.55,5.17-3.99,5.98C7.43,261.9-4.45,264.34-10,266.6a12.474,12.474,0,0,0-3.73,2.02,3.876,3.876,0,0,0-1.34,3.81c.53,1.76,2.54,2.55,4.34,2.93a28.909,28.909,0,0,0,13.37-.38c1.79-.48,3.53-1.14,5.33-1.53,6.93-1.51,14.04.91,21.11,1.48,3.96.32,8.29-.06,11.27-2.7,3.85-3.41,1.95-8.85.16-13.66" fill="none" stroke="#678e8c" stroke-linecap="round" stroke-linejoin="round" stroke-width="1"/>
                    <path id="パス_23737" data-name="パス 23737" d="M32.55,132.21a7.977,7.977,0,0,1,4.73,5.87" fill="none" stroke="#678e8c" stroke-linecap="round" stroke-linejoin="round" stroke-width="1"/>
                  </g>
                </g>
              </g>
            </g>
            <g id="グループ_21235" data-name="グループ 21235">
              <path id="パス_23878" data-name="パス 23878" d="M177.2,55.11c.8,5.81-2.86,54.54-3.56,60.46-1.26,10.65-3.82,15.65-5.93,18.97-3.55,5.57-13.67,11.12-18.97,12.45s-16.44,1.15-21.34,1.19-42.82-4.16-56.31-2.37c-3.15.44-12.55,2.37-14.82.59s-1.19-3.56-1.19-3.56-5.73-2.62,1.19-11.26c4.19-5.23,14.59-10.59,20.75-13.04s14.26-4.88,29.04-2.37,25.54,8.96,33.19,9.48c9.45.53,9-6.76,8.89-10.67-.11-5.5-9.57-20.23-11.86-27.27-4.15-12.07-3.22-24.98-.59-31.42,8.16-21.74,26.59-30.23,27.86-30.23s2.96,2.96,2.96,2.96c7.02-2,10.1,20.74,10.67,26.08Z" fill="#cfe1e2" fill-rule="evenodd" opacity="0.6"/>
              <g id="グループ_21234" data-name="グループ 21234" style="mix-blend-mode: multiply;isolation: isolate">
                <path id="パス_23738" data-name="パス 23738" d="M177.2,55.11c.8,5.81-2.86,54.54-3.56,60.46-1.26,10.65-3.82,15.65-5.93,18.97-3.55,5.57-13.67,11.12-18.97,12.45s-16.44,1.15-21.34,1.19-42.82-4.16-56.31-2.37c-3.15.44-12.55,2.37-14.82.59s-1.19-3.56-1.19-3.56-5.73-2.62,1.19-11.26c4.19-5.23,14.59-10.59,20.75-13.04s14.26-4.88,29.04-2.37,25.54,8.96,33.19,9.48c9.45.53,9-6.76,8.89-10.67-.11-5.5-9.57-20.23-11.86-27.27-4.15-12.07-3.22-24.98-.59-31.42,8.16-21.74,26.59-30.23,27.86-30.23s2.96,2.96,2.96,2.96c7.02-2,10.1,20.74,10.67,26.08Z" fill="#cfe1e2" fill-rule="evenodd"/>
                <path id="パス_23739" data-name="パス 23739" d="M165.94,28.43c-3.61.28-16.87,15.34-23.44,28.83-1.34,3.11-3.8,9.67-1.46,16.22s11.67,28.28,13.96,33.43,7.24,15.97,6.4,21.34-4.56,6.34-9.19,6.05-19.2-3.18-27.17-5.1-14.22-3.8-24.2-4.34c-9.48.09-14.38.5-21.63,3.53-4.14,1.71-14.91,7.51-18.64,9.65,0,0-5.28,3.02-6.47,3.8l-.16.08c-1.21-1.38-2.36-4.47,2.34-10.34,4.19-5.23,14.59-10.59,20.75-13.04s14.26-4.88,29.04-2.37,25.54,8.96,33.19,9.48c9.45.53,9-6.76,8.89-10.67-.11-5.5-9.57-20.23-11.86-27.27-4.15-12.07-3.22-24.98-.59-31.42,8.16-21.74,26.59-30.23,27.86-30.23.89,0,2,1.46,2.57,2.33l-.2.04Z" fill="#99b8b8" fill-rule="evenodd"/>
              </g>
              <path id="パス_23740" data-name="パス 23740" d="M163.64,27.06h0m-.06.01a6.978,6.978,0,0,1,2.08,2.45,1,1,0,0,0,.87.5.842.842,0,0,0,.27-.04,2.064,2.064,0,0,1,.59-.09c4.01,0,7.47,12.73,8.82,25.34.78,5.7-2.93,54.85-3.56,60.21-1.21,10.24-3.6,15.12-5.78,18.55-3.37,5.31-13.29,10.74-18.37,12.01-4.51,1.13-13.56,1.14-18.97,1.15h-2.19c-1.38,0-5.37-.32-10.42-.73-10.21-.83-25.64-2.08-36.75-2.08a74.487,74.487,0,0,0-9.22.45c-.51.07-1.18.18-1.95.3a62.585,62.585,0,0,1-9.05,1.02c-2.16,0-2.86-.37-3.06-.53-1.45-1.14-1.03-2.09-.95-2.25a1.012,1.012,0,0,0-.43-1.43,3.174,3.174,0,0,1-1.56-2.11c-.3-1.33,0-3.74,3.1-7.62,4.33-5.4,15.19-10.69,20.34-12.74a43.3,43.3,0,0,1,17.11-3.36,68.94,68.94,0,0,1,11.4,1.04,111.286,111.286,0,0,1,20.07,5.79c5.09,1.85,9.48,3.44,13.23,3.7.35.02.68.03,1,.03,2.92,0,5.16-.79,6.67-2.34,2.48-2.55,2.36-6.49,2.29-9.1v-.28c-.08-3.47-3.42-9.99-6.66-16.29a92.88,92.88,0,0,1-5.26-11.28c-3.94-11.48-3.29-24.14-.6-30.74,7.76-20.67,24.9-29.11,26.94-29.57m-.02-1.01c-1.27,0-19.7,8.49-27.86,30.23-2.62,6.44-3.56,19.34.59,31.42,2.29,7.04,11.74,21.76,11.86,27.27.11,3.77.53,10.7-7.95,10.7-.3,0-.62,0-.95-.03-7.65-.53-18.41-6.98-33.19-9.48a68.966,68.966,0,0,0-11.57-1.06,44.238,44.238,0,0,0-17.48,3.43c-6.16,2.45-16.56,7.81-20.75,13.04-6.92,8.64-1.19,11.26-1.19,11.26s-1.08,1.78,1.19,3.56a6.517,6.517,0,0,0,3.68.74c3.73,0,8.95-1.03,11.14-1.33a74.159,74.159,0,0,1,9.08-.44c16.66,0,42.94,2.82,47.17,2.82h.06c4.9-.03,16.04.14,21.34-1.19s15.42-6.87,18.97-12.45c2.11-3.32,4.67-8.32,5.93-18.97.7-5.92,4.35-54.65,3.56-60.46-.55-5.12-3.4-26.21-9.81-26.2a3.242,3.242,0,0,0-.86.12s-1.69-2.96-2.96-2.96h0Z" fill="#678e8c"/>
            </g>
            <g id="グループ_21236" data-name="グループ 21236">
              <path id="パス_23741" data-name="パス 23741" d="M92.28,105.22l7.96,7.58a.77.77,0,0,0,1.27-.34l3.05-10.56a.775.775,0,0,0-1.2-.84l-4.46,3.25a.762.762,0,0,1-.53.14l-5.49-.56a.775.775,0,0,0-.61,1.33Z" fill="#008499"/>
              <path id="パス_23742" data-name="パス 23742" d="M97.01,106.1c-3.28-11.87-2.42-29.37,3.89-40.08a.174.174,0,0,1,.29.19,30.8,30.8,0,0,0-2.85,9.5c-1.47,9.65-.92,20.08,2.46,29.13a2,2,0,1,1-3.79,1.27h0Z" fill="#008499"/>
            </g>
            <g id="グループ_21237" data-name="グループ 21237">
              <path id="パス_23743" data-name="パス 23743" d="M149.7,51.71l9.38-9.66a.951.951,0,0,1,1.58.36l4.24,12.78a.943.943,0,0,1-1.42,1.08l-5.61-3.77a.957.957,0,0,0-.66-.15l-6.69.95a.942.942,0,0,1-.81-1.59Z" fill="#008499"/>
              <path id="パス_23744" data-name="パス 23744" d="M160.19,52.68a33.782,33.782,0,0,0-2.1,11.46,92.348,92.348,0,0,0,2.81,24.47,44.977,44.977,0,0,0,4.3,11.54.481.481,0,0,1-.15.68.47.47,0,0,1-.62-.14,46.191,46.191,0,0,1-5.38-11.53,103.348,103.348,0,0,1-3.25-12.29c-1.57-8.61-2.8-17.22-.17-25.97a2.45,2.45,0,1,1,4.56,1.78Z" fill="#008499"/>
            </g>
          </g>
        </g>
      </g>
    </g>
  </g>
</svg>
