<svg xmlns="http://www.w3.org/2000/svg" xmlns:xlink="http://www.w3.org/1999/xlink" width="146" height="135" viewBox="0 0 146 135">
  <defs>
    <clipPath id="clip-path">
      <rect id="長方形_3660" data-name="長方形 3660" width="146" height="135" fill="none"/>
    </clipPath>
  </defs>
  <g id="point01-premiumdx-sp" style="isolation: isolate">
    <g id="レイヤー_2" data-name="レイヤー 2">
      <g id="w196h167">
        <g id="グループ_21295" data-name="グループ 21295" clip-path="url(#clip-path)">
          <g id="グループ_21294" data-name="グループ 21294" transform="translate(-12.314 -16.473)">
            <g id="グループ_21289" data-name="グループ 21289">
              <g id="グループ_21288" data-name="グループ 21288">
                <g id="グループ_21281" data-name="グループ 21281" transform="translate(0.008)" opacity="0.5">
                  <g id="グループ_21280" data-name="グループ 21280" transform="translate(81.154)">
                    <path id="パス_23830" data-name="パス 23830" d="M98.756,44.544c1.623-6.5-.4-18.175-1.4-20.644-.556-1.379-4.108-10.951-4.732-12.307A17.3,17.3,0,0,1,92.56-1.454a39.268,39.268,0,0,1,1.9-3.749c3.018-4.923,7.331-8.139,10.928-12.65l1.989-2.644c2.157-2.538,3.231-5.959,5.784-8.093,2.652-2.21,3.7-2.576,7.141-2.843a9.767,9.767,0,0,1,2.789.046,8.024,8.024,0,0,1,3.109,1.577c2.782,2.065,4.13,4.771,5.708,7.849l1.395,3.688a45.152,45.152,0,0,1,1.448,27.526c-4.847,15.516-5.357,24.066-4.534,29.012l1.143,5.327c1.113,7.308,3.658,14.06,3.749,21.445-13.4.678-26.924.221-40.336-.312-.008-.808-.015-.693-.015-1.844l3.978-18.335Z" transform="translate(-91.313 31.511)" fill="#b5b5b6"/>
                  </g>
                  <path id="パス_23831" data-name="パス 23831" d="M27.267,222.5c1.372,3.666,2.812,7.819-.122,10.41-2.263,2-5.571,2.3-8.589,2.058-5.388-.442-10.806-2.279-16.087-1.128-1.379.3-2.705.8-4.062,1.166a22.036,22.036,0,0,1-10.189.29c-1.372-.29-2.911-.892-3.307-2.233a2.954,2.954,0,0,1,1.021-2.9,9.414,9.414,0,0,1,2.843-1.539c4.229-1.722,13.283-3.582,20.553-9.892,1.1-.617,3.033-3.3,3.041-4.557.023-8.23-.274-15.935-.884-24.142-.229-3.071-.5-6.142-.785-9.206-.389-4.191-.808-8.383-1.227-12.574-.221-2.21-.358-28.334-2.484-40.367a14.9,14.9,0,0,1,.587-5.4,15.778,15.778,0,0,1,1.943-4.153,18.6,18.6,0,0,1,10.608-7.651c4.519-1.41,23.769-3.056,32.937-3.742-.122,9.4-.48,13.39.541,22.733-2.957.671-14.495,1.166-22.58,1.9l-1.318.084c-.754,0-2.515.3-3.094.373.754,4.732,2.157,10.036,2.911,14.769,2.6,15.714-.991,19.821-3.97,35.04A57.657,57.657,0,0,0,24.227,197.4c.32,4.359,1.257,18.145,2.2,22.42l.838,2.682Z" transform="translate(15.179 -1.428)" fill="#fbfbfc"/>
                  <path id="パス_23832" data-name="パス 23832" d="M118.5,95.715c-2.164.076-11.073-.191-13.313-.2-4.7-.015-8.97-.328-13.976-.3-.061.815-.282,6.645-.442,7.453-1.738.084-14.685,1.463-16.407,1.463.015,7.156.282,21.772.541,22.733.061.236,12.925-.023,13.511-.084,9.983-.518,15.462-.815,27.541-1.7,2.21-.526,5.144-1.158,7.057-2.385,8.657-8.169,7.72-23.258,7.712-24.2a8.208,8.208,0,0,0-.61-2.942c-.617-.747-4.016-.107-5.014-.069-2.195.076-4.4.16-6.592.236Z" transform="translate(-6.125 1.366)" fill="#4a5f5c"/>
                </g>
                <g id="グループ_21284" data-name="グループ 21284" transform="translate(0 4.353)" opacity="0.7">
                  <path id="パス_23833" data-name="パス 23833" d="M45.11,77.133c-2.987.419-4.321-2.622.7-3.986,6.66-1.806,15.569-4.344,21.239-6.683a19.612,19.612,0,0,0,4.115-3.01c7.133-6.371,13.1-15.264,20.721-21.048,1.669-1.265,3.079-2.789,5.053-4.458l1.036-2.294c.937-14.373,1.806-31.961,2.164-45.808.1-3.925.343-8.093,2.606-11.3a10.423,10.423,0,0,1,7.049-4.268,6.183,6.183,0,0,1,3.582.457,6.689,6.689,0,0,1,3.01,3.993l1.646,7.933c.229,5.35-3.986,24.219-4.283,26.086-1.174,7.468-2,15-2.461,22.542l-1.242,3.734a65.5,65.5,0,0,1-4.793,6.5c-7.926,9.457-18.412,16.346-28.745,23.1a60.69,60.69,0,0,1-6.714,4.169,52.305,52.305,0,0,1-6.828,2.576L45.1,77.133Z" transform="translate(1.474 25.799)" fill="#fbfbfc"/>
                  <path id="パス_23834" data-name="パス 23834" d="M100.37,106.62s5.754,1.478,8.375,3.848" transform="translate(-12.306 -5.708)" fill="none" stroke="#678e8c" stroke-linecap="round" stroke-linejoin="round" stroke-width="1"/>
                  <path id="パス_23835" data-name="パス 23835" d="M97.53,109.42a8.732,8.732,0,0,0,2.827,5.38" transform="translate(-11.63 -6.374)" fill="none" stroke="#678e8c" stroke-linecap="round" stroke-linejoin="round" stroke-width="1"/>
                  <path id="パス_23836" data-name="パス 23836" d="M104.97,2.481a32.771,32.771,0,0,0,7.339-7.3" transform="translate(-13.401 20.808)" fill="none" stroke="#678e8c" stroke-linecap="round" stroke-linejoin="round" stroke-width="1"/>
                  <path id="パス_23837" data-name="パス 23837" d="M106.11,54.9a10.3,10.3,0,0,0,4.329-4.13" transform="translate(-13.672 7.581)" fill="none" stroke="#678e8c" stroke-linecap="round" stroke-linejoin="round" stroke-width="1"/>
                  <path id="パス_23838" data-name="パス 23838" d="M127.26,71.47s2.637,10.875,11.919,13.268" transform="translate(-18.704 2.656)" fill="none" stroke="#678e8c" stroke-linecap="round" stroke-linejoin="round" stroke-width="1"/>
                  <path id="パス_23839" data-name="パス 23839" d="M115.31,35.653c.937-14.373,1.806-31.961,2.164-45.808.1-3.925.343-8.093,2.606-11.3a10.423,10.423,0,0,1,7.049-4.268,6.183,6.183,0,0,1,3.582.457,6.689,6.689,0,0,1,3.01,3.993" transform="translate(-15.861 25.799)" fill="none" stroke="#678e8c" stroke-linecap="round" stroke-linejoin="round" stroke-width="1"/>
                  <path id="パス_23840" data-name="パス 23840" d="M44.609,97.328c-2.751-.541-2.934-3.559.13-4.153a137.941,137.941,0,0,0,22.321-6.8,19.612,19.612,0,0,0,4.115-3.01C78.308,77,84.275,68.1,91.9,62.318c1.669-1.265,3.079-2.789,5.053-4.458" transform="translate(1.464 5.894)" fill="none" stroke="#678e8c" stroke-linecap="round" stroke-linejoin="round" stroke-width="1"/>
                  <path id="パス_23841" data-name="パス 23841" d="M139.524-9.45c.229,5.35-3.986,24.219-4.283,26.086-1.174,7.468-2,15-2.461,22.542" transform="translate(-20.018 21.909)" fill="none" stroke="#678e8c" stroke-linecap="round" stroke-linejoin="round" stroke-width="1"/>
                  <g id="グループ_21282" data-name="グループ 21282" transform="translate(81.164 8.87)">
                    <path id="パス_23842" data-name="パス 23842" d="M105.387-13.6c-3.6,4.519-7.91,7.727-10.928,12.65a38.409,38.409,0,0,0-1.9,3.749,17.331,17.331,0,0,0,.061,13.047c.617,1.356,4.176,10.92,4.732,12.307,1,2.477,3.033,14.152,1.4,20.644" transform="translate(-91.316 14.027)" fill="none" stroke="#678e8c" stroke-linecap="round" stroke-linejoin="round" stroke-width="1"/>
                    <path id="パス_23843" data-name="パス 23843" d="M132.452,67.03c1.113,7.308,3.658,14.06,3.749,21.445-13.4.678-26.924.221-40.336-.312-.008-.808-.015-.693-.015-1.844" transform="translate(-92.395 -5.158)" fill="none" stroke="#678e8c" stroke-linecap="round" stroke-linejoin="round" stroke-width="1"/>
                    <path id="パス_23844" data-name="パス 23844" d="M145.356-14.16A45.152,45.152,0,0,1,146.8,13.366c-4.847,15.516-5.357,24.066-4.534,29.012" transform="translate(-103.364 14.16)" fill="none" stroke="#678e8c" stroke-linecap="round" stroke-linejoin="round" stroke-width="1"/>
                  </g>
                  <path id="パス_23845" data-name="パス 23845" d="M115.613,59.26a65.5,65.5,0,0,1-4.793,6.5c-7.926,9.457-18.412,16.346-28.745,23.1a70.512,70.512,0,0,1-7.232,4.412,87.684,87.684,0,0,1-8.992,2.9" transform="translate(-4.093 5.561)" fill="none" stroke="#678e8c" stroke-linecap="round" stroke-linejoin="round" stroke-width="1"/>
                  <path id="パス_23846" data-name="パス 23846" d="M62.862,103.56c-2.949,1.174-8.581.922-7.72,3.62" transform="translate(-1.524 -4.979)" fill="none" stroke="#678e8c" stroke-linecap="round" stroke-linejoin="round" stroke-width="1"/>
                  <g id="グループ_21283" data-name="グループ 21283" transform="translate(0 91.653)">
                    <path id="パス_23847" data-name="パス 23847" d="M90.9,94.47c-.107.93-.282,7.377-.32,8.314-1.92-.091-14.38.861-16.278,1.174-.122,9.4-.48,13.39.541,22.733" transform="translate(-6.065 -94.47)" fill="none" stroke="#678e8c" stroke-linecap="round" stroke-linejoin="round" stroke-width="1"/>
                    <path id="パス_23848" data-name="パス 23848" d="M69.365,105.99c-9.168.686-37.821,3.048-42.341,4.458A18.568,18.568,0,0,0,16.416,118.1a15.778,15.778,0,0,0-1.943,4.153,14.9,14.9,0,0,0-.587,5.4" transform="translate(8.282 -97.211)" fill="none" stroke="#678e8c" stroke-linecap="round" stroke-linejoin="round" stroke-width="1"/>
                    <path id="パス_23849" data-name="パス 23849" d="M121.693,96.74a37.923,37.923,0,0,1-2.644,19.623,16.91,16.91,0,0,1-2.766,4.71,14.69,14.69,0,0,1-7.857,4.3c-2.957.671-57.056,3.018-65.142,3.757-1.143.122-3.262.328-4.4.457.754,4.732,2.157,10.036,2.911,14.769,2.6,15.714-3.635,28.212-4.58,39.559-.442,5.35-1.105,9.465-.716,14.815.32,4.359,1.257,14.388,2.2,18.663" transform="translate(2.92 -95.01)" fill="none" stroke="#678e8c" stroke-linecap="round" stroke-linejoin="round" stroke-width="1"/>
                    <path id="パス_23850" data-name="パス 23850" d="M6.979,134.41c2.126,12.033,2.263,38.157,2.484,40.367.419,4.191.838,8.383,1.227,12.574q.434,4.6.785,9.206c.61,8.207.907,15.912.884,24.142,0,1.257-1.943,3.94-3.041,4.557-7.27,6.31-16.324,8.169-20.553,9.892a9.506,9.506,0,0,0-2.843,1.539,2.954,2.954,0,0,0-1.021,2.9c.4,1.341,1.936,1.943,3.307,2.233a22.031,22.031,0,0,0,10.189-.29c1.364-.366,2.69-.869,4.062-1.166,5.281-1.151,10.7.693,16.087,1.128,3.018.244,6.318-.046,8.589-2.058,2.934-2.6,1.486-6.744.122-10.41" transform="translate(15.189 -103.973)" fill="none" stroke="#678e8c" stroke-linecap="round" stroke-linejoin="round" stroke-width="1"/>
                    <path id="パス_23851" data-name="パス 23851" d="M32.55,132.21a6.079,6.079,0,0,1,3.6,4.473" transform="translate(3.83 -103.45)" fill="none" stroke="#678e8c" stroke-linecap="round" stroke-linejoin="round" stroke-width="1"/>
                  </g>
                </g>
                <g id="グループ_21287" data-name="グループ 21287" transform="translate(0 4.353)" opacity="0.2">
                  <path id="パス_23852" data-name="パス 23852" d="M45.11,77.133c-2.987.419-4.321-2.622.7-3.986,6.66-1.806,15.569-4.344,21.239-6.683a19.612,19.612,0,0,0,4.115-3.01c7.133-6.371,13.1-15.264,20.721-21.048,1.669-1.265,3.079-2.789,5.053-4.458l1.036-2.294c.937-14.373,1.806-31.961,2.164-45.808.1-3.925.343-8.093,2.606-11.3a10.423,10.423,0,0,1,7.049-4.268,6.183,6.183,0,0,1,3.582.457,6.689,6.689,0,0,1,3.01,3.993l1.646,7.933c.229,5.35-3.986,24.219-4.283,26.086-1.174,7.468-2,15-2.461,22.542l-1.242,3.734a65.5,65.5,0,0,1-4.793,6.5c-7.926,9.457-18.412,16.346-28.745,23.1a60.69,60.69,0,0,1-6.714,4.169,52.305,52.305,0,0,1-6.828,2.576L45.1,77.133Z" transform="translate(1.474 25.799)" fill="#fbfbfc"/>
                  <path id="パス_23853" data-name="パス 23853" d="M100.37,106.62s5.754,1.478,8.375,3.848" transform="translate(-12.306 -5.708)" fill="none" stroke="#678e8c" stroke-linecap="round" stroke-linejoin="round" stroke-width="1"/>
                  <path id="パス_23854" data-name="パス 23854" d="M97.53,109.42a8.732,8.732,0,0,0,2.827,5.38" transform="translate(-11.63 -6.374)" fill="none" stroke="#678e8c" stroke-linecap="round" stroke-linejoin="round" stroke-width="1"/>
                  <path id="パス_23855" data-name="パス 23855" d="M104.97,2.481a32.771,32.771,0,0,0,7.339-7.3" transform="translate(-13.401 20.808)" fill="none" stroke="#678e8c" stroke-linecap="round" stroke-linejoin="round" stroke-width="1"/>
                  <path id="パス_23856" data-name="パス 23856" d="M106.11,54.9a10.3,10.3,0,0,0,4.329-4.13" transform="translate(-13.672 7.581)" fill="none" stroke="#678e8c" stroke-linecap="round" stroke-linejoin="round" stroke-width="1"/>
                  <path id="パス_23857" data-name="パス 23857" d="M127.26,71.47s2.637,10.875,11.919,13.268" transform="translate(-18.704 2.656)" fill="none" stroke="#678e8c" stroke-linecap="round" stroke-linejoin="round" stroke-width="1"/>
                  <path id="パス_23858" data-name="パス 23858" d="M115.31,35.653c.937-14.373,1.806-31.961,2.164-45.808.1-3.925.343-8.093,2.606-11.3a10.423,10.423,0,0,1,7.049-4.268,6.183,6.183,0,0,1,3.582.457,6.689,6.689,0,0,1,3.01,3.993" transform="translate(-15.861 25.799)" fill="none" stroke="#678e8c" stroke-linecap="round" stroke-linejoin="round" stroke-width="1"/>
                  <path id="パス_23859" data-name="パス 23859" d="M44.609,97.328c-2.751-.541-2.934-3.559.13-4.153a137.941,137.941,0,0,0,22.321-6.8,19.612,19.612,0,0,0,4.115-3.01C78.308,77,84.275,68.1,91.9,62.318c1.669-1.265,3.079-2.789,5.053-4.458" transform="translate(1.464 5.894)" fill="none" stroke="#678e8c" stroke-linecap="round" stroke-linejoin="round" stroke-width="1"/>
                  <path id="パス_23860" data-name="パス 23860" d="M139.524-9.45c.229,5.35-3.986,24.219-4.283,26.086-1.174,7.468-2,15-2.461,22.542" transform="translate(-20.018 21.909)" fill="none" stroke="#678e8c" stroke-linecap="round" stroke-linejoin="round" stroke-width="1"/>
                  <g id="グループ_21285" data-name="グループ 21285" transform="translate(81.164 8.87)">
                    <path id="パス_23861" data-name="パス 23861" d="M105.387-13.6c-3.6,4.519-7.91,7.727-10.928,12.65a38.409,38.409,0,0,0-1.9,3.749,17.331,17.331,0,0,0,.061,13.047c.617,1.356,4.176,10.92,4.732,12.307,1,2.477,3.033,14.152,1.4,20.644" transform="translate(-91.316 14.027)" fill="none" stroke="#678e8c" stroke-linecap="round" stroke-linejoin="round" stroke-width="1"/>
                    <path id="パス_23862" data-name="パス 23862" d="M132.452,67.03c1.113,7.308,3.658,14.06,3.749,21.445-13.4.678-26.924.221-40.336-.312-.008-.808-.015-.693-.015-1.844" transform="translate(-92.395 -5.158)" fill="none" stroke="#678e8c" stroke-linecap="round" stroke-linejoin="round" stroke-width="1"/>
                    <path id="パス_23863" data-name="パス 23863" d="M145.356-14.16A45.152,45.152,0,0,1,146.8,13.366c-4.847,15.516-5.357,24.066-4.534,29.012" transform="translate(-103.364 14.16)" fill="none" stroke="#678e8c" stroke-linecap="round" stroke-linejoin="round" stroke-width="1"/>
                  </g>
                  <path id="パス_23864" data-name="パス 23864" d="M115.613,59.26a65.5,65.5,0,0,1-4.793,6.5c-7.926,9.457-18.412,16.346-28.745,23.1a70.512,70.512,0,0,1-7.232,4.412,87.684,87.684,0,0,1-8.992,2.9" transform="translate(-4.093 5.561)" fill="none" stroke="#678e8c" stroke-linecap="round" stroke-linejoin="round" stroke-width="1"/>
                  <path id="パス_23865" data-name="パス 23865" d="M62.862,103.56c-2.949,1.174-8.581.922-7.72,3.62" transform="translate(-1.524 -4.979)" fill="none" stroke="#678e8c" stroke-linecap="round" stroke-linejoin="round" stroke-width="1"/>
                  <g id="グループ_21286" data-name="グループ 21286" transform="translate(0 91.653)">
                    <path id="パス_23866" data-name="パス 23866" d="M90.9,94.47c-.107.93-.282,7.377-.32,8.314-1.92-.091-14.38.861-16.278,1.174-.122,9.4-.48,13.39.541,22.733" transform="translate(-6.065 -94.47)" fill="none" stroke="#678e8c" stroke-linecap="round" stroke-linejoin="round" stroke-width="1"/>
                    <path id="パス_23867" data-name="パス 23867" d="M69.365,105.99c-9.168.686-37.821,3.048-42.341,4.458A18.568,18.568,0,0,0,16.416,118.1a15.778,15.778,0,0,0-1.943,4.153,14.9,14.9,0,0,0-.587,5.4" transform="translate(8.282 -97.211)" fill="none" stroke="#678e8c" stroke-linecap="round" stroke-linejoin="round" stroke-width="1"/>
                    <path id="パス_23868" data-name="パス 23868" d="M121.693,96.74a37.923,37.923,0,0,1-2.644,19.623,16.91,16.91,0,0,1-2.766,4.71,14.69,14.69,0,0,1-7.857,4.3c-2.957.671-57.056,3.018-65.142,3.757-1.143.122-3.262.328-4.4.457.754,4.732,2.157,10.036,2.911,14.769,2.6,15.714-3.635,28.212-4.58,39.559-.442,5.35-1.105,9.465-.716,14.815.32,4.359,1.257,14.388,2.2,18.663" transform="translate(2.92 -95.01)" fill="none" stroke="#678e8c" stroke-linecap="round" stroke-linejoin="round" stroke-width="1"/>
                    <path id="パス_23869" data-name="パス 23869" d="M6.979,134.41c2.126,12.033,2.263,38.157,2.484,40.367.419,4.191.838,8.383,1.227,12.574q.434,4.6.785,9.206c.61,8.207.907,15.912.884,24.142,0,1.257-1.943,3.94-3.041,4.557-7.27,6.31-16.324,8.169-20.553,9.892a9.506,9.506,0,0,0-2.843,1.539,2.954,2.954,0,0,0-1.021,2.9c.4,1.341,1.936,1.943,3.307,2.233a22.031,22.031,0,0,0,10.189-.29c1.364-.366,2.69-.869,4.062-1.166,5.281-1.151,10.7.693,16.087,1.128,3.018.244,6.318-.046,8.589-2.058,2.934-2.6,1.486-6.744.122-10.41" transform="translate(15.189 -103.973)" fill="none" stroke="#678e8c" stroke-linecap="round" stroke-linejoin="round" stroke-width="1"/>
                    <path id="パス_23870" data-name="パス 23870" d="M32.55,132.21a6.079,6.079,0,0,1,3.6,4.473" transform="translate(3.83 -103.45)" fill="none" stroke="#678e8c" stroke-linecap="round" stroke-linejoin="round" stroke-width="1"/>
                  </g>
                </g>
              </g>
            </g>
            <g id="グループ_21291" data-name="グループ 21291" transform="translate(51.845 43.843)">
              <path id="パス_23880" data-name="パス 23880" d="M147.614,48.2c.61,4.428-2.18,41.563-2.713,46.075-.96,8.116-2.911,11.926-4.519,14.456-2.705,4.245-10.417,8.474-14.456,9.488s-12.528.876-16.263.907-32.632-3.17-42.912-1.806c-2.4.335-9.564,1.806-11.294.45s-.907-2.713-.907-2.713-4.367-2,.907-8.581c3.193-3.986,11.119-8.07,15.813-9.937S82.137,92.817,93.4,94.73s19.463,6.828,25.293,7.224c7.2.4,6.859-5.152,6.775-8.131-.084-4.191-7.293-15.417-9.038-20.782-3.163-9.2-2.454-19.036-.45-23.944C122.2,32.53,136.244,26.06,137.212,26.06s2.256,2.256,2.256,2.256c5.35-1.524,7.7,15.805,8.131,19.875Z" transform="translate(-52.845 -26.031)" fill="#cfe1e2" stroke="#678e8c" stroke-width="1" fill-rule="evenodd" opacity="0.6"/>
              <g id="グループ_21290" data-name="グループ 21290" transform="translate(0.008 0.03)" style="mix-blend-mode: multiply;isolation: isolate">
                <path id="パス_23871" data-name="パス 23871" d="M147.614,48.2c.61,4.428-2.18,41.563-2.713,46.075-.96,8.116-2.911,11.926-4.519,14.456-2.705,4.245-10.417,8.474-14.456,9.488s-12.528.876-16.263.907-32.632-3.17-42.912-1.806c-2.4.335-9.564,1.806-11.294.45s-.907-2.713-.907-2.713-4.367-2,.907-8.581c3.193-3.986,11.119-8.07,15.813-9.937S82.137,92.817,93.4,94.73s19.463,6.828,25.293,7.224c7.2.4,6.859-5.152,6.775-8.131-.084-4.191-7.293-15.417-9.038-20.782-3.163-9.2-2.454-19.036-.45-23.944C122.2,32.53,136.244,26.06,137.212,26.06s2.256,2.256,2.256,2.256c5.35-1.524,7.7,15.805,8.131,19.875Z" transform="translate(-52.852 -26.06)" fill="#cfe1e2" stroke="#678e8c" stroke-width="1" fill-rule="evenodd"/>
                <path id="パス_23872" data-name="パス 23872" d="M139.037,27.866c-2.751.213-12.856,11.69-17.863,21.97-1.021,2.37-2.9,7.369-1.113,12.361s8.893,21.551,10.638,25.476,5.517,12.17,4.877,16.263-3.475,4.832-7,4.611-14.632-2.423-20.705-3.887-10.837-2.9-18.442-3.307c-7.224.069-10.959.381-16.484,2.69-3.155,1.3-11.362,5.723-14.2,7.354,0,0-4.024,2.3-4.931,2.9l-.122.061c-.922-1.052-1.8-3.406,1.783-7.88,3.193-3.986,11.119-8.07,15.813-9.937s10.867-3.719,22.13-1.806,19.463,6.828,25.293,7.224c7.2.4,6.859-5.152,6.775-8.131-.084-4.191-7.293-15.417-9.038-20.782-3.163-9.2-2.454-19.036-.45-23.944,6.218-16.567,20.263-23.037,21.231-23.037.678,0,1.524,1.113,1.959,1.776l-.152.03Z" transform="translate(-52.857 -26.06)" fill="#99b8b8" fill-rule="evenodd"/>
              </g>
              <path id="パス_23873" data-name="パス 23873" d="M137.278,26.813h0m-.046.008a5.317,5.317,0,0,1,1.585,1.867.758.758,0,0,0,.663.381.642.642,0,0,0,.206-.03,1.573,1.573,0,0,1,.45-.069c3.056,0,5.693,9.7,6.721,19.311.594,4.344-2.233,41.8-2.713,45.884-.922,7.8-2.743,11.522-4.4,14.136-2.568,4.047-10.128,8.185-14,9.152-3.437.861-10.334.869-14.456.876h-1.669c-1.052,0-4.092-.244-7.941-.556-7.781-.633-19.539-1.585-28.006-1.585a56.766,56.766,0,0,0-7.026.343c-.389.053-.9.137-1.486.229a47.694,47.694,0,0,1-6.9.777c-1.646,0-2.18-.282-2.332-.4-1.1-.869-.785-1.593-.724-1.715a.771.771,0,0,0-.328-1.09,2.419,2.419,0,0,1-1.189-1.608c-.229-1.014,0-2.85,2.362-5.807,3.3-4.115,11.576-8.147,15.5-9.709a33,33,0,0,1,13.039-2.561,52.537,52.537,0,0,1,8.688.793,84.807,84.807,0,0,1,15.295,4.412c3.879,1.41,7.224,2.622,10.082,2.82.267.015.518.023.762.023a6.809,6.809,0,0,0,5.083-1.783c1.89-1.943,1.8-4.946,1.745-6.935V93.76c-.061-2.644-2.606-7.613-5.075-12.414a70.782,70.782,0,0,1-4.008-8.6c-3-8.749-2.507-18.4-.457-23.426,5.914-15.752,18.976-22.184,20.53-22.534m-.015-.77c-.968,0-15.013,6.47-21.231,23.037-2,4.908-2.713,14.738.45,23.944,1.745,5.365,8.947,16.583,9.038,20.782.084,2.873.4,8.154-6.058,8.154-.229,0-.472,0-.724-.023-5.83-.4-14.03-5.319-25.293-7.224a52.557,52.557,0,0,0-8.817-.808A33.713,33.713,0,0,0,71.26,96.5c-4.694,1.867-12.62,5.952-15.813,9.937-5.274,6.584-.907,8.581-.907,8.581s-.823,1.356.907,2.713a4.966,4.966,0,0,0,2.8.564,65.957,65.957,0,0,0,8.489-1.014,56.513,56.513,0,0,1,6.92-.335c12.7,0,32.723,2.149,35.947,2.149h.046c3.734-.023,12.224.107,16.263-.907s11.751-5.235,14.456-9.488c1.608-2.53,3.559-6.34,4.519-14.456.533-4.511,3.315-41.647,2.713-46.075-.419-3.9-2.591-19.974-7.476-19.966a2.47,2.47,0,0,0-.655.091s-1.288-2.256-2.256-2.256h0Z" transform="translate(-52.842 -26.02)" fill="#678e8c"/>
            </g>
            <g id="グループ_21292" data-name="グループ 21292" transform="translate(81.708 74.269)">
              <path id="パス_23874" data-name="パス 23874" d="M92.22,104.194l6.066,5.776a.587.587,0,0,0,.968-.259l2.324-8.047a.59.59,0,0,0-.914-.64l-3.4,2.477a.581.581,0,0,1-.4.107l-4.184-.427a.59.59,0,0,0-.465,1.014Z" transform="translate(-92.03 -74.265)" fill="#008499"/>
              <path id="パス_23875" data-name="パス 23875" d="M96.564,96.546C94.064,87.5,94.72,74.164,99.528,66a.132.132,0,0,1,.221.145,23.468,23.468,0,0,0-2.172,7.24,45.153,45.153,0,0,0,1.875,22.2,1.524,1.524,0,1,1-2.888.968h0Z" transform="translate(-92.769 -65.946)" fill="#008499"/>
            </g>
            <g id="グループ_21293" data-name="グループ 21293" transform="translate(125.458 55.84)">
              <path id="パス_23876" data-name="パス 23876" d="M149.638,49.343l7.148-7.362a.725.725,0,0,1,1.2.274L161.221,52a.719.719,0,0,1-1.082.823l-4.275-2.873a.729.729,0,0,0-.5-.114l-5.1.724a.718.718,0,0,1-.617-1.212Z" transform="translate(-149.439 -41.763)" fill="#008499"/>
              <path id="パス_23877" data-name="パス 23877" d="M158.741,51.857a25.745,25.745,0,0,0-1.6,8.733,70.376,70.376,0,0,0,2.141,18.648,34.275,34.275,0,0,0,3.277,8.794.366.366,0,0,1-.114.518.358.358,0,0,1-.472-.107,35.2,35.2,0,0,1-4.1-8.787,78.759,78.759,0,0,1-2.477-9.366c-1.2-6.561-2.134-13.123-.13-19.791a1.867,1.867,0,1,1,3.475,1.356Z" transform="translate(-150.547 -43.537)" fill="#008499"/>
            </g>
          </g>
        </g>
      </g>
    </g>
  </g>
</svg>
