<svg xmlns="http://www.w3.org/2000/svg" width="90" height="36" viewBox="0 0 90 36">
  <g id="style_logo" transform="translate(5970.73 20899)">
    <rect id="area" width="90" height="36" transform="translate(-5970.73 -20899)" fill="none"/>
    <path id="パス_10" data-name="パス 10" d="M153.642,35.075l-.5-.073a1.665,1.665,0,0,1-1.407-1.779V15.9a.408.408,0,0,0-.293-.392l-.017-.005a.407.407,0,0,0-.473.2,7.617,7.617,0,0,1-1.287,1.751,6.853,6.853,0,0,1-1.909,1.278.352.352,0,0,0-.2.371v.006a.358.358,0,0,0,.355.309h.78a.765.765,0,0,1,.765.766V33.222A1.664,1.664,0,0,1,148.046,35l-.5.073a.255.255,0,0,0-.219.252v.242a.256.256,0,0,0,.256.256h6.02a.255.255,0,0,0,.255-.256v-.242a.255.255,0,0,0-.217-.252" transform="translate(-6047.661 -20905.807)" fill="#fff"/>
    <path id="パス_11" data-name="パス 11" d="M131.871,19.971v1.811a.511.511,0,0,0,.51.51H135.7a.255.255,0,0,1,.255.256v.737a.255.255,0,0,1-.255.256h-3.323a.511.511,0,0,0-.51.51V31c0,1.141.5,2.176,1.991,2.176a7.513,7.513,0,0,0,2.116-.283.361.361,0,0,1,.462.3.366.366,0,0,1-.136.329,5.492,5.492,0,0,1-3.477,1.139,3.045,3.045,0,0,1-3.238-3.4V24.253a.766.766,0,0,0-.766-.766h-.78a.356.356,0,0,1-.354-.309v-.005a.357.357,0,0,1,.2-.373,6.818,6.818,0,0,0,1.909-1.278,7.672,7.672,0,0,0,1.288-1.751.407.407,0,0,1,.473-.2l.015.005a.409.409,0,0,1,.294.392" transform="translate(-6053.269 -20904.6)" fill="#fff"/>
    <path id="パス_12" data-name="パス 12" d="M163.814,26.253h-7.165a.123.123,0,0,0-.123.112c-.015.167-.04.518-.04,1.018,0,3.207,1.617,5,4.286,5a6.467,6.467,0,0,0,2.944-.623.309.309,0,0,1,.361.487,5.826,5.826,0,0,1-4.382,1.8c-3.644,0-5.467-2.618-5.467-5.9a6.267,6.267,0,0,1,6.211-6.468c2.585,0,3.918,1.418,4.022,3.89a.647.647,0,0,1-.647.679m-1.962-1.006a.4.4,0,0,0,.382-.4v-.006a2.053,2.053,0,0,0-2.334-2.259,3.422,3.422,0,0,0-3.224,2.791.124.124,0,0,0,.127.152Z" transform="translate(-6045.691 -20904.012)" fill="#fff"/>
    <path id="パス_13" data-name="パス 13" d="M149.12,21.686h-4.056a.255.255,0,0,0-.254.256v.24a.256.256,0,0,0,.217.253l.5.073c.478.08.69.319.69.638a2.006,2.006,0,0,1-.132.5L143.3,30.8a.128.128,0,0,1-.242-.009l-2.255-7.3a1.3,1.3,0,0,1-.053-.371c0-.344.266-.531.8-.611l.449-.072a.254.254,0,0,0,.215-.252v-.243a.256.256,0,0,0-.256-.256H136.57a.256.256,0,0,0-.256.256v.24a.257.257,0,0,0,.219.253l.5.073c.663.107,1.141.425,1.566,1.645l3.36,9.507a.507.507,0,0,1-.008.361l-1.279,2.94a1.139,1.139,0,0,1-1.049.7,1.219,1.219,0,0,0-1.235,1.149,1.186,1.186,0,0,0,2.288.47l6.5-15.2a2.288,2.288,0,0,1,1.8-1.593l.193-.04a.255.255,0,0,0,.206-.249v-.252a.256.256,0,0,0-.256-.256" transform="translate(-6050.805 -20904.012)" fill="#fff"/>
    <path id="パス_14" data-name="パス 14" d="M118.623,19.557c0-1.671,1.337-2.953,3.454-2.953,2.309,0,3.924,1.334,4.106,3.421a.424.424,0,0,0,.847-.005V17.084a1.055,1.055,0,0,0-.882-1.06h0l-1.659-.325a13.455,13.455,0,0,0-2.206-.207c-3.984,0-5.832,2.312-5.832,5.07,0,6.351,9.025,6.156,9.025,10.751,0,2.229-2.117,3.4-4.151,3.4a4.366,4.366,0,0,1-4.534-3.891.423.423,0,0,0-.842.053v3.156a1.022,1.022,0,0,0,.713.972h0l.063.018h.005l.042.009,1.879.44h0l.344.08a10.1,10.1,0,0,0,2.492.276c3.788,0,6.407-2.145,6.407-5.543,0-5.989-9.276-6.657-9.276-10.724" transform="translate(-6056.617 -20905.807)" fill="#fff"/>
    <path id="パス_15" data-name="パス 15" d="M108.2,9.424a.078.078,0,0,0-.109-.111C105.6,11.307,95.38,19.482,93.768,20.833c-1.758,1.473-1.314,2.612-.428,3.654,1.028,1.212,4.282,4.752,5.539,6.278a8.2,8.2,0,0,1,1.839,3.732.079.079,0,0,0,.143.027,5.844,5.844,0,0,0,.274-6.427c-.863-1.525-1.837-2.8-2.291-3.593a2.778,2.778,0,0,1,.049-3.455Z" transform="translate(-6063.292 -20907.549)" fill="#fff"/>
    <path id="パス_16" data-name="パス 16" d="M94.472,41.434a.078.078,0,0,0,.109.111c2.5-1.989,12.73-10.146,14.345-11.494,1.76-1.471,1.318-2.609.433-3.654-1.024-1.213-4.274-4.76-5.527-6.287A8.2,8.2,0,0,1,102,16.374a.078.078,0,0,0-.141-.028,5.838,5.838,0,0,0-.285,6.427c.859,1.526,1.83,2.8,2.284,3.6a2.772,2.772,0,0,1-.057,3.454Z" transform="translate(-6062.752 -20905.578)" fill="#fff"/>
  </g>
</svg>
