<svg xmlns="http://www.w3.org/2000/svg" width="20" height="20" viewBox="0 0 20 20">
  <g id="グループ_20951" data-name="グループ 20951" transform="translate(-152 -8)">
    <g id="楕円形_97" data-name="楕円形 97" transform="translate(152 8)" fill="none" stroke="#bfbdbd" stroke-miterlimit="10" stroke-width="1">
      <circle cx="10" cy="10" r="10" stroke="none"/>
      <circle cx="10" cy="10" r="9.5" fill="none"/>
    </g>
    <g id="グループ_7038" data-name="グループ 7038">
      <path id="パス_23066" data-name="パス 23066" d="M162.01,21.743h-.022a1.07,1.07,0,0,0-1.063,1.077v.009a1.032,1.032,0,0,0,.314.77,1.073,1.073,0,0,0,.771.315,1.018,1.018,0,0,0,.76-.325,1.1,1.1,0,0,0,.011-1.531A1.075,1.075,0,0,0,162.01,21.743Z" fill="#bfbdbd"/>
      <path id="パス_23067" data-name="パス 23067" d="M164.843,14.481a2.792,2.792,0,0,0-1.139-1.042,3.758,3.758,0,0,0-1.705-.38,3.266,3.266,0,0,0-2.2.858,3.212,3.212,0,0,0-1.053,2.4h1.834a1.3,1.3,0,0,1,.435-1.064,1.6,1.6,0,0,1,1.042-.326,1.3,1.3,0,0,1,.922.326,1.093,1.093,0,0,1,.348.8,1.2,1.2,0,0,1-.207.695,4.123,4.123,0,0,1-.662.716,5.439,5.439,0,0,0-1.085,1.216,2.436,2.436,0,0,0-.315,1.259h-.011v.717h2.008V20.2a1.787,1.787,0,0,1,.2-.879,3.789,3.789,0,0,1,.705-.836,5.258,5.258,0,0,0,.966-1.183,2.571,2.571,0,0,0,.337-1.357A2.676,2.676,0,0,0,164.843,14.481Z" fill="#bfbdbd"/>
    </g>
  </g>
</svg>
