<svg xmlns="http://www.w3.org/2000/svg" width="25.12" height="31.399" viewBox="0 0 25.12 31.399">
  <g id="グループ_21225" data-name="グループ 21225" transform="translate(-501.823 -8831.684)">
    <path id="パス_22335" data-name="パス 22335" d="M177.593,664.944h1.944c1.313,0,2.321.465,2.321,1.865,0,1.352-1.016,1.961-2.289,1.961h-.793v2.105h-1.184Zm1.9,2.889c.816,0,1.208-.344,1.208-1.024s-.431-.92-1.248-.92h-.673v1.944Z" transform="translate(329.36 8183.154)" fill="#8d8b8b"/>
    <path id="パス_22336" data-name="パス 22336" d="M184.93,664.944h1.624a2.966,2.966,0,0,1,.064,5.931H184.93Zm1.552,4.978c1.1,0,1.792-.591,1.792-2.033s-.687-1.992-1.792-1.992h-.368v4.025Z" transform="translate(327.36 8183.154)" fill="#8d8b8b"/>
    <path id="パス_22337" data-name="パス 22337" d="M193,664.944h3.65v.993h-2.465v1.544h2.105v.992h-2.105v2.4H193Z" transform="translate(325.16 8183.154)" fill="#8d8b8b"/>
    <g id="グループ_6357" data-name="グループ 6357" transform="translate(501.823 8831.684)">
      <path id="パス_22511" data-name="パス 22511" d="M19.7,2H7.14A3.149,3.149,0,0,0,4,5.14V30.26A3.136,3.136,0,0,0,7.124,33.4H25.98a3.149,3.149,0,0,0,3.14-3.14V11.42Zm6.28,28.26H7.14V5.14H18.13v7.85h7.85Z" transform="translate(-4 -2)" fill="#8d8b8b"/>
    </g>
  </g>
</svg>
